<svg width="24" height="24" viewBox="0 0 24 24" fill="none" xmlns="http://www.w3.org/2000/svg">
<path fill-rule="evenodd" clip-rule="evenodd" d="M24 12C24 18.6274 18.6274 24 12 24C5.37258 24 0 18.6274 0 12C0 5.37258 5.37258 0 12 0C18.6274 0 24 5.37258 24 12Z" fill="url(#paint0_linear)"/>
<path d="M14.7763 5.13135H9.22372C6.96716 5.13135 5.13135 6.96716 5.13135 9.22372V14.7763C5.13135 17.0328 6.96716 18.8687 9.22377 18.8687H14.7763C17.0328 18.8687 18.8688 17.0329 18.8688 14.7763V9.22372C18.8687 6.96716 17.0329 5.13135 14.7763 5.13135ZM17.4868 14.7763C17.4868 16.2733 16.2733 17.4868 14.7763 17.4868H9.22377C7.72686 17.4868 6.51336 16.2733 6.51336 14.7763V9.22377C6.51336 7.72686 7.72686 6.51332 9.22377 6.51332H14.7763C16.2733 6.51332 17.4868 7.72691 17.4868 9.22377V14.7763Z" fill="white"/>
<path d="M12.0001 8.44702C10.041 8.44702 8.44702 10.041 8.44702 12C8.44702 13.959 10.041 15.5529 12.0001 15.5529C13.9591 15.5529 15.5529 13.9591 15.5529 12C15.5529 10.041 13.9591 8.44702 12.0001 8.44702ZM12.0001 14.171C10.801 14.171 9.82899 13.1991 9.82899 12C9.82899 10.801 10.801 9.82899 12.0001 9.82899C13.1991 9.82899 14.171 10.8009 14.171 12C14.171 13.1991 13.1991 14.171 12.0001 14.171Z" fill="white"/>
<path d="M16.411 8.47383C16.411 8.94398 16.0298 9.32522 15.5596 9.32522C15.0895 9.32522 14.7083 8.94398 14.7083 8.47383C14.7083 8.00362 15.0895 7.62244 15.5596 7.62244C16.0299 7.62244 16.411 8.00353 16.411 8.47383Z" fill="white"/>
<path d="M14.7764 5.13135H11.9731V6.51332H14.7764C16.2733 6.51332 17.4868 7.72691 17.4868 9.22377V14.7763C17.4868 16.2733 16.2733 17.4868 14.7764 17.4868H11.9731V18.8687H14.7764C17.0328 18.8687 18.8687 17.0329 18.8687 14.7763V9.22372C18.8687 6.96716 17.0329 5.13135 14.7764 5.13135Z" fill="white"/>
<path d="M12.0001 8.44702C11.991 8.44702 11.9822 8.44768 11.9731 8.44768V9.82965C11.9821 9.82955 11.991 9.82899 12.0001 9.82899C13.1991 9.82899 14.171 10.8009 14.171 12C14.171 13.1991 13.1991 14.171 12.0001 14.171C11.991 14.171 11.9821 14.1704 11.9731 14.1703V15.5523C11.9822 15.5524 11.991 15.5529 12.0001 15.5529C13.9591 15.5529 15.5529 13.9591 15.5529 12C15.5529 10.041 13.9591 8.44702 12.0001 8.44702Z" fill="white"/>
<defs>
<linearGradient id="paint0_linear" x1="20" y1="3" x2="3.5" y2="20.5" gradientUnits="userSpaceOnUse">
<stop stop-color="#7C39AD"/>
<stop offset="0.276042" stop-color="#A143B0"/>
<stop offset="0.459235" stop-color="#D51F50"/>
<stop offset="0.645833" stop-color="#F7060D"/>
<stop offset="0.8125" stop-color="#F84B00"/>
<stop offset="1" stop-color="#F8CC01"/>
</linearGradient>
</defs>
</svg>
