<svg width="17" height="17" viewBox="0 0 17 17" fill="none" xmlns="http://www.w3.org/2000/svg">
<g clip-path="url(#clip0)">
<path d="M4.10334 8.96651L11.9663 16.8078C12.224 17.0645 12.6411 17.0641 12.8983 16.8064C13.1552 16.5488 13.1546 16.1315 12.8969 15.8745L5.50195 8.49997L12.8972 1.12545C13.1548 0.868462 13.1555 0.451399 12.8985 0.193745C12.7696 0.0645847 12.6007 3.77185e-06 12.4318 3.75708e-06C12.2633 3.74235e-06 12.0951 0.0641517 11.9664 0.192415L4.10334 8.03347C3.97926 8.15692 3.90964 8.32492 3.90964 8.49997C3.90964 8.67502 3.97946 8.84282 4.10334 8.96651Z" fill="#D6B56E"/>
</g>
<defs>
<clipPath id="clip0">
<rect width="17" height="17" fill="white" transform="translate(17 17) rotate(-180)"/>
</clipPath>
</defs>
</svg>
