<svg width="24" height="24" viewBox="0 0 24 24" fill="none" xmlns="http://www.w3.org/2000/svg">
<path d="M12 24C18.6274 24 24 18.6274 24 12C24 5.37258 18.6274 0 12 0C5.37258 0 0 5.37258 0 12C0 18.6274 5.37258 24 12 24Z" fill="#3770FF"/>
<path d="M5.60531 10.954L17.1342 6.0599C17.6693 5.84706 18.1366 6.20362 17.9632 7.09446L17.9642 7.09336L16.0012 17.2755C15.8558 17.9974 15.4662 18.1729 14.9211 17.8328L11.9318 15.4072L10.4899 16.9365C10.3305 17.1121 10.1959 17.2602 9.88705 17.2602L10.0993 13.9107L15.6395 8.40001C15.8807 8.16633 15.5857 8.03467 15.2679 8.26726L8.42127 13.0133L5.4698 11.9996C4.82908 11.7758 4.81513 11.2941 5.60531 10.954Z" fill="white"/>
</svg>
