<svg width="24" height="24" viewBox="0 0 24 24" fill="none" xmlns="http://www.w3.org/2000/svg">
<circle cx="12" cy="12" r="12" fill="#7B519C"/>
<path d="M12.0847 6.08243C12.188 6 12.25 6 12.5805 6C12.7458 6 12.9936 6.02061 13.1382 6.04123C13.8199 6.12365 14.2537 6.22669 14.8528 6.51517C15.4518 6.80368 15.8236 7.07155 16.3401 7.54552C16.8152 7.99888 17.0631 8.3492 17.3522 8.90558C17.7447 9.66804 17.9513 10.5541 17.9926 11.5433C18.0133 11.873 17.9926 11.9554 17.91 12.0584C17.7654 12.2439 17.4349 12.2233 17.3109 11.9966C17.2696 11.9348 17.2696 11.873 17.249 11.6051C17.2283 11.193 17.2077 10.9251 17.1457 10.5954C16.9185 9.33835 16.2988 8.32861 15.3072 7.60736C14.481 7.00976 13.758 6.78309 12.6425 6.70066C12.25 6.70066 12.188 6.70066 12.1054 6.61824C11.9402 6.51517 11.9402 6.22667 12.0847 6.08243Z" fill="white"/>
<path d="M14.1297 8.65828C13.7372 8.43161 13.1382 8.24614 12.6011 8.20492C12.4152 8.18431 12.2913 8.1431 12.2293 8.06068C12.1053 7.95764 12.1053 7.77217 12.188 7.64854C12.2912 7.48369 12.4565 7.46308 12.9316 7.5455C14.1297 7.71036 15.0593 8.26676 15.679 9.15284C16.0301 9.6474 16.2367 10.245 16.2987 10.8632C16.3193 11.0899 16.3193 11.502 16.2987 11.5845C16.278 11.6463 16.1954 11.7493 16.1128 11.7699C16.0301 11.8112 15.8649 11.8112 15.7823 11.7493C15.6377 11.6669 15.5757 11.5639 15.5757 11.2342C15.5757 10.7396 15.4517 10.2038 15.2038 9.79167C14.956 9.31769 14.5842 8.92617 14.1297 8.65828Z" fill="white"/>
<path d="M14.6462 11.3784C14.5223 11.4815 14.3157 11.4815 14.1918 11.3784C14.0885 11.3166 14.0678 11.2342 14.0472 11.0281C14.0265 10.7602 13.9646 10.5748 13.9026 10.4099C13.7373 10.039 13.4275 9.85353 12.9111 9.7917C12.6632 9.77108 12.6012 9.72988 12.5186 9.64745C12.374 9.4826 12.436 9.21471 12.6219 9.11167C12.7045 9.07044 12.7252 9.07044 12.8904 9.09105C12.9937 9.09105 13.1383 9.11167 13.2209 9.13228C13.6134 9.21471 13.9026 9.35895 14.1712 9.58564C14.5017 9.89474 14.6876 10.2451 14.7495 10.7808C14.7908 11.1312 14.7702 11.2754 14.6462 11.3784Z" fill="white"/>
<path d="M17.9719 15.7677C17.9719 15.5823 17.91 15.438 17.786 15.2938C17.6621 15.1495 16.8151 14.4695 16.402 14.2016C16.0922 13.9955 15.617 13.707 15.4105 13.604C15.1213 13.4598 14.8321 13.4392 14.5635 13.5216C14.5016 13.5422 14.4603 13.5628 14.419 13.5834C14.295 13.6452 14.1917 13.7689 13.9439 14.0573C13.7786 14.2634 13.634 14.4489 13.6134 14.4489C13.6134 14.4489 13.5927 14.4489 13.5927 14.4695C13.572 14.4901 13.5101 14.5107 13.4687 14.5313C13.2002 14.6549 12.849 14.5725 12.2706 14.3046C11.8162 14.078 11.4237 13.8101 10.9693 13.3979C10.5768 13.0476 10.1843 12.6149 9.97773 12.2645C9.68853 11.8112 9.48197 11.2342 9.48197 10.9045C9.48197 10.7602 9.54394 10.5748 9.60592 10.4717L9.62659 10.4511C9.62659 10.4511 9.62659 10.4511 9.64725 10.4305C9.66791 10.4099 9.68857 10.3893 9.70921 10.3893C9.79184 10.3275 9.89513 10.2244 9.99842 10.142C10.4735 9.77107 10.5768 9.64744 10.6388 9.44136C10.7008 9.23528 10.6388 8.96741 10.4322 8.59648C10.0603 7.91648 9.02751 6.61823 8.65568 6.37095C8.59372 6.32973 8.49043 6.28852 8.42846 6.2473C8.26321 6.20607 8.03599 6.18549 7.91204 6.20607C7.72613 6.2473 7.49891 6.39154 6.98249 6.76245C6.67264 6.98912 6.25948 7.38067 6.15622 7.54552C5.929 7.93704 5.94964 8.24616 6.21818 9.00862C6.46606 9.68864 6.79657 10.3687 7.1684 11.0281L7.18906 11.0487C7.27169 11.1724 7.35432 11.3166 7.43694 11.4402C7.43694 11.4608 7.45761 11.4608 7.45761 11.4814C7.54023 11.6051 7.62286 11.7493 7.70549 11.873C7.74681 11.9142 7.76745 11.976 7.80878 12.0172C7.87074 12.1203 7.93273 12.2027 8.01535 12.3057C8.11864 12.45 8.22193 12.5942 8.34586 12.7385C9.5233 14.2634 10.8866 15.4998 12.4979 16.5095C12.5185 16.5302 12.5392 16.5302 12.5598 16.5508C12.8077 16.695 13.0556 16.8393 13.3035 16.9835C13.3448 17.0041 13.3655 17.0247 13.4068 17.0453C13.6547 17.1896 13.9232 17.3132 14.1917 17.4369C14.2124 17.4575 14.2537 17.4575 14.2744 17.4781C14.5429 17.6017 14.8321 17.7254 15.1213 17.849C15.4725 17.9933 15.5964 18.0139 15.8649 17.9933C15.9889 17.9933 16.1128 17.9726 16.2161 17.9314C16.3814 17.8902 16.526 17.8078 16.7119 17.6842C16.7532 17.6635 16.7738 17.6429 16.8152 17.6223C16.8565 17.6017 16.8978 17.5605 16.9391 17.5193C17.1663 17.3338 17.4142 17.0454 17.6208 16.7775C17.7654 16.592 17.8687 16.4065 17.9306 16.2623C17.9513 16.0562 17.9719 15.912 17.9719 15.7677Z" fill="white"/>
</svg>
