<svg width="24" height="24" viewBox="0 0 24 24" fill="none" xmlns="http://www.w3.org/2000/svg">
<circle cx="12" cy="12" r="12" fill="#4CAF50"/>
<path d="M16.9699 7.01192C15.6399 5.72625 13.8899 5 12.0262 5C6.67706 5 3.31827 10.7954 5.98932 15.4055L5 19L8.69537 18.0363C10.3054 18.9061 11.6243 18.8291 12.0297 18.8804C18.2322 18.8804 21.3197 11.3764 16.9611 7.03467L16.9699 7.01192Z" fill="white"/>
<path d="M12.0393 17.6881L12.0358 17.6875H12.0264C10.1703 17.6875 8.98434 16.8084 8.86768 16.7577L6.68018 17.3264L7.26643 15.2002L7.12701 14.9814C6.54951 14.0621 6.24268 13.0033 6.24268 11.9131C6.24268 6.78383 12.5106 4.21892 16.1378 7.84433C19.7562 11.4318 17.2158 17.6881 12.0393 17.6881Z" fill="#4CAF50"/>
<path d="M15.2125 13.3458L15.2072 13.3895C15.0317 13.302 14.1765 12.8838 14.0172 12.826C13.6597 12.6936 13.7606 12.805 13.074 13.5914C12.9719 13.7051 12.8704 13.7139 12.6972 13.6351C12.5222 13.5476 11.9604 13.3639 11.2954 12.7689C10.7774 12.3051 10.4297 11.7364 10.3271 11.5614C10.1562 11.2662 10.5137 11.2242 10.8392 10.6082C10.8976 10.4857 10.8678 10.3894 10.8247 10.3025C10.7809 10.215 10.4327 9.35752 10.2868 9.01568C10.1468 8.67502 10.0027 8.71818 9.89483 8.71818C9.55883 8.68902 9.31325 8.69368 9.09683 8.91885C8.15533 9.95368 8.39275 11.0212 9.19833 12.1564C10.7815 14.2284 11.625 14.6099 13.1673 15.1395C13.5838 15.2719 13.9636 15.2533 14.264 15.2101C14.5988 15.157 15.2947 14.7895 15.44 14.3783C15.5887 13.967 15.5887 13.6258 15.545 13.547C15.5018 13.4683 15.3875 13.4245 15.2125 13.3458Z" fill="white"/>
</svg>
