<svg width="24" height="24" viewBox="0 0 24 24" fill="none" xmlns="http://www.w3.org/2000/svg">
<path d="M12 24C18.6274 24 24 18.6274 24 12C24 5.37258 18.6274 0 12 0C5.37258 0 0 5.37258 0 12C0 18.6274 5.37258 24 12 24Z" fill="#F82F20"/>
<path d="M18.0402 7.98466C17.6803 8.09448 17.3051 8.18884 16.9293 8.28283C14.2626 8.84847 10.707 7.31312 9.1717 9.81817C7.89122 11.8101 7.48692 14.3026 6.03028 16.0836L13.8107 23.8641C18.989 23.0803 23.0813 18.9874 23.8643 13.8089L18.0402 7.98466Z" fill="#F82F20"/>
<path d="M16.0148 7.14062H7.98525C6.40987 7.14062 5.13281 8.41774 5.13281 9.99307V14.0071C5.13281 15.5825 6.40992 16.8595 7.98525 16.8595H16.0148C17.5902 16.8595 18.8673 15.5824 18.8673 14.0071V9.99307C18.8673 8.41774 17.5902 7.14062 16.0148 7.14062ZM14.0857 12.1954L10.3301 13.9865C10.23 14.0343 10.1143 13.9614 10.1143 13.8506V10.1561C10.1143 10.0436 10.233 9.97076 10.3332 10.0216L14.0888 11.9248C14.2007 11.9814 14.1987 12.1415 14.0857 12.1954Z" fill="white"/>
<path d="M16.0148 7.14062H11.9192V10.8252L14.0889 11.9247C14.2006 11.9813 14.1986 12.1414 14.0857 12.1953L11.9192 13.2286V16.8595H16.0148C17.5902 16.8595 18.8672 15.5824 18.8672 14.0071V9.99307C18.8672 8.41774 17.5901 7.14062 16.0148 7.14062Z" fill="white"/>
</svg>
