<svg width="24" height="24" fill="none" xmlns="http://www.w3.org/2000/svg"><path fill-rule="evenodd" clip-rule="evenodd" d="M24 12c0 6.627-5.373 12-12 12S0 18.627 0 12 5.373 0 12 0s12 5.373 12 12z" fill="url(#paint0_linear)"/><path d="M14.776 5.131H9.224A4.097 4.097 0 005.13 9.224v5.552a4.097 4.097 0 004.093 4.093h5.552a4.097 4.097 0 004.093-4.093V9.224a4.097 4.097 0 00-4.093-4.093zm2.71 9.645a2.71 2.71 0 01-2.71 2.71H9.224a2.71 2.71 0 01-2.71-2.71V9.224a2.71 2.71 0 012.71-2.71h5.552a2.71 2.71 0 012.71 2.71v5.552z" fill="#fff"/><path d="M12 8.447A3.557 3.557 0 008.447 12 3.557 3.557 0 0012 15.553 3.557 3.557 0 0015.553 12 3.557 3.557 0 0012 8.447zm0 5.724a2.171 2.171 0 110-4.342 2.171 2.171 0 010 4.342zm4.411-5.697a.851.851 0 11-1.703 0 .851.851 0 011.703 0z" fill="#fff"/><path d="M14.776 5.131h-2.803v1.382h2.803a2.71 2.71 0 012.71 2.71v5.553a2.71 2.71 0 01-2.71 2.71h-2.803v1.383h2.803a4.097 4.097 0 004.093-4.093V9.224a4.097 4.097 0 00-4.093-4.093z" fill="#fff"/><path d="M12 8.447h-.027V9.83L12 9.829a2.17 2.17 0 110 4.342h-.027v1.381H12A3.557 3.557 0 0015.553 12 3.557 3.557 0 0012 8.447z" fill="#fff"/><defs><linearGradient id="paint0_linear" x1="20" y1="3" x2="3.5" y2="20.5" gradientUnits="userSpaceOnUse"><stop stop-color="#7C39AD"/><stop offset=".276" stop-color="#A143B0"/><stop offset=".459" stop-color="#D51F50"/><stop offset=".646" stop-color="#F7060D"/><stop offset=".813" stop-color="#F84B00"/><stop offset="1" stop-color="#F8CC01"/></linearGradient></defs></svg>