<svg width="24" height="24" fill="none" xmlns="http://www.w3.org/2000/svg"><circle cx="12" cy="12" r="12" fill="#7B519C"/><path d="M12.085 6.082C12.188 6 12.25 6 12.58 6c.166 0 .414.02.558.041.682.083 1.116.186 1.715.474.599.289.97.557 1.487 1.03.475.454.723.804 1.012 1.36.393.763.6 1.65.64 2.638.021.33 0 .412-.082.515-.145.186-.475.165-.6-.061-.04-.062-.04-.124-.061-.392a6.927 6.927 0 00-.103-1.01c-.227-1.257-.847-2.266-1.839-2.988-.826-.597-1.549-.824-2.665-.906-.392 0-.454 0-.537-.083-.165-.103-.165-.391-.02-.536z" fill="#fff"/><path d="M14.13 8.658c-.393-.226-.992-.412-1.529-.453-.186-.02-.31-.062-.372-.144-.124-.103-.124-.289-.041-.412.103-.165.268-.186.744-.104 1.198.165 2.127.722 2.747 1.608.351.494.558 1.092.62 1.71.02.227.02.639 0 .722-.021.061-.104.164-.186.185-.083.041-.248.041-.33-.02-.145-.083-.207-.186-.207-.516 0-.494-.124-1.03-.372-1.442a2.84 2.84 0 00-1.074-1.134z" fill="#fff"/><path d="M14.646 11.378a.372.372 0 01-.454 0c-.104-.061-.124-.144-.145-.35a2.098 2.098 0 00-.144-.618c-.166-.371-.476-.556-.992-.618-.248-.02-.31-.062-.392-.145-.145-.164-.083-.432.103-.535.082-.042.103-.042.268-.021.104 0 .248.02.33.041.393.083.683.227.951.454.33.309.517.66.579 1.195.04.35.02.494-.104.597zm3.326 4.39a.686.686 0 00-.186-.474c-.124-.145-.97-.825-1.384-1.092-.31-.207-.785-.495-.992-.598a1.12 1.12 0 00-.847-.082.93.93 0 00-.144.061c-.124.062-.227.186-.475.474-.165.206-.31.392-.33.392 0 0-.021 0-.021.02-.021.021-.083.042-.124.062-.269.124-.62.041-1.198-.226a5.521 5.521 0 01-1.302-.907c-.392-.35-.785-.783-.991-1.133-.29-.454-.496-1.03-.496-1.36 0-.145.062-.33.124-.433l.02-.02.021-.021c.02-.021.042-.042.062-.042.083-.061.186-.165.29-.247.474-.37.578-.495.64-.7.062-.207 0-.475-.207-.846-.372-.68-1.404-1.978-1.776-2.225-.062-.041-.166-.082-.228-.124a1.538 1.538 0 00-.516-.04c-.186.04-.413.185-.93.555-.31.227-.723.619-.826.784-.227.391-.206.7.062 1.463.248.68.579 1.36.95 2.02l.021.02c.083.123.165.268.248.391 0 .02.02.02.02.041.083.124.166.268.248.392.042.041.062.103.104.144.062.103.124.186.206.289.104.144.207.288.33.433a15.706 15.706 0 004.153 3.77c.02.021.041.021.062.042l.743.433c.042.02.063.04.104.061.248.145.516.268.785.392.02.02.062.02.082.041.269.124.558.247.847.371.351.144.475.165.744.144.124 0 .248-.02.351-.062.165-.04.31-.123.496-.247.041-.02.062-.041.103-.062a.513.513 0 00.124-.103c.227-.185.475-.474.682-.741.144-.186.248-.371.31-.516.02-.206.04-.35.04-.494z" fill="#fff"/></svg>