<svg width="24" height="24" fill="none" xmlns="http://www.w3.org/2000/svg"><circle cx="12" cy="12" r="12" fill="#4CAF50"/><path d="M16.97 7.012A7.083 7.083 0 0012.026 5C6.677 5 3.318 10.795 5.99 15.405L5 19l3.695-.964c1.61.87 2.93.793 3.335.844 6.202 0 9.29-7.504 4.931-11.845l.009-.023z" fill="#fff"/><path d="M12.04 17.688h-.014c-1.856 0-3.042-.88-3.158-.93l-2.188.568.586-2.126-.139-.219a5.757 5.757 0 01-.884-3.068c0-5.13 6.268-7.694 9.895-4.069 3.618 3.588 1.078 9.844-4.099 9.844z" fill="#4CAF50"/><path d="M15.213 13.346l-.006.043c-.175-.087-1.03-.505-1.19-.563-.357-.132-.256-.021-.943.765-.102.114-.204.123-.377.044-.175-.087-.737-.271-1.402-.866a5.291 5.291 0 01-.968-1.208c-.17-.295.187-.337.512-.953.059-.122.029-.219-.014-.306-.044-.087-.392-.944-.538-1.286-.14-.341-.284-.298-.392-.298-.336-.029-.582-.024-.798.2-.942 1.036-.704 2.103.101 3.238 1.583 2.072 2.427 2.454 3.97 2.983.416.133.796.114 1.096.071.335-.053 1.03-.42 1.176-.832.149-.411.149-.752.105-.831-.043-.079-.158-.123-.332-.201z" fill="#fff"/></svg>