<svg width="24" height="24" fill="none" xmlns="http://www.w3.org/2000/svg"><path d="M12 24c6.627 0 12-5.373 12-12S18.627 0 12 0 0 5.373 0 12s5.373 12 12 12z" fill="#F82F20"/><path d="M18.04 7.985c-.36.11-.735.204-1.11.298-2.667.565-6.223-.97-7.758 1.535-1.28 1.992-1.685 4.485-3.142 6.266l7.78 7.78A12.008 12.008 0 0023.865 13.81L18.04 7.985z" fill="#F82F20"/><path d="M16.015 7.14h-8.03a2.852 2.852 0 00-2.852 2.853v4.014a2.852 2.852 0 002.852 2.853h8.03a2.852 2.852 0 002.852-2.853V9.993a2.852 2.852 0 00-2.852-2.852zm-1.93 5.055l-3.755 1.791a.15.15 0 01-.216-.135v-3.695a.15.15 0 01.22-.134l3.755 1.903a.15.15 0 01-.003.27z" fill="#fff"/><path d="M16.015 7.14h-4.096v3.685l2.17 1.1a.15.15 0 01-.003.27l-2.167 1.034v3.63h4.096a2.852 2.852 0 002.852-2.852V9.993a2.852 2.852 0 00-2.852-2.852z" fill="#fff"/></svg>